<?xml version="1.0" encoding="UTF-8"?>
<svg xmlns="http://www.w3.org/2000/svg" xmlns:xlink="http://www.w3.org/1999/xlink" width="20px" height="20px" viewBox="0 0 20 20" version="1.1">
<g id="surface1">
<rect x="0" y="0" width="20" height="20" style="fill:rgb(0%,51.764706%,69.411765%);fill-opacity:1;stroke:none;"/>
<path style=" stroke:none;fill-rule:nonzero;fill:rgb(100%,100%,100%);fill-opacity:1;" d="M 4.707031 3.039062 C 5.621094 3.039062 6.378906 3.792969 6.375 4.714844 C 6.375 5.679688 5.574219 6.40625 4.695312 6.386719 C 3.804688 6.402344 3.019531 5.660156 3.019531 4.710938 C 3.019531 3.789062 3.78125 3.035156 4.707031 3.039062 Z M 4.707031 3.039062 "/>
<path style=" stroke:none;fill-rule:nonzero;fill:rgb(100%,100%,100%);fill-opacity:1;" d="M 5.679688 16.960938 L 3.71875 16.960938 C 3.460938 16.960938 3.257812 16.753906 3.257812 16.5 L 3.257812 8.125 C 3.257812 7.871094 3.460938 7.664062 3.71875 7.664062 L 5.679688 7.664062 C 5.933594 7.664062 6.140625 7.871094 6.140625 8.125 L 6.140625 16.5 C 6.140625 16.753906 5.933594 16.960938 5.679688 16.960938 Z M 5.679688 16.960938 "/>
<path style=" stroke:none;fill-rule:nonzero;fill:rgb(100%,100%,100%);fill-opacity:1;" d="M 16.980469 10.605469 C 16.980469 8.851562 15.554688 7.429688 13.800781 7.429688 L 13.296875 7.429688 C 12.335938 7.429688 11.488281 7.90625 10.976562 8.640625 C 10.921875 8.71875 10.871094 8.800781 10.824219 8.886719 C 10.808594 8.886719 10.796875 8.882812 10.796875 8.882812 L 10.796875 7.855469 C 10.796875 7.75 10.710938 7.664062 10.605469 7.664062 L 8.15625 7.664062 C 8.050781 7.664062 7.964844 7.75 7.964844 7.855469 L 7.964844 16.769531 C 7.964844 16.875 8.050781 16.960938 8.15625 16.960938 L 10.660156 16.960938 C 10.765625 16.960938 10.851562 16.875 10.851562 16.769531 L 10.851562 11.621094 C 10.851562 10.730469 11.558594 9.992188 12.449219 9.980469 C 12.90625 9.976562 13.316406 10.160156 13.613281 10.457031 C 13.90625 10.75 14.085938 11.152344 14.085938 11.601562 L 14.085938 16.769531 C 14.085938 16.875 14.171875 16.960938 14.277344 16.960938 L 16.785156 16.960938 C 16.894531 16.960938 16.980469 16.875 16.980469 16.769531 Z M 16.980469 10.605469 "/>
</g>
</svg>
